# This file uses centimeters as units for non-parametric coordinates.

mtllib æ æ†.mtl
g default
v -3.596109 5.159355 -6.481191
v -3.632623 5.231018 -6.481191
v -3.689494 5.287889 -6.481191
v -3.761156 5.324403 -6.481191
v -3.840595 5.336984 -6.481191
v -3.585849 5.081422 -6.483641
v -3.584143 5.163244 -6.401753
v -3.622444 5.238413 -6.401753
v -3.682099 5.298068 -6.401753
v -3.757268 5.336368 -6.401753
v -3.840595 5.349566 -6.401753
v -3.570946 5.079917 -6.401753
v -3.549417 5.174527 -6.330091
v -3.592904 5.259875 -6.330091
v -3.660637 5.327608 -6.330091
v -3.745985 5.371095 -6.330091
v -3.840595 5.386080 -6.330091
v -3.534432 5.079917 -6.330091
v -3.495329 5.192101 -6.273220
v -3.546894 5.293303 -6.273220
v -3.627209 5.373618 -6.273220
v -3.728411 5.425183 -6.273220
v -3.840595 5.442951 -6.273220
v -3.477561 5.079917 -6.273220
v -3.427174 5.214246 -6.236706
v -3.488918 5.335425 -6.236706
v -3.585087 5.431594 -6.236706
v -3.706266 5.493338 -6.236706
v -3.840595 5.514614 -6.236706
v -3.405899 5.079917 -6.236706
v -3.351624 5.238794 -6.224124
v -3.424651 5.382118 -6.224124
v -3.538394 5.495860 -6.224124
v -3.681718 5.568888 -6.224124
v -3.840595 5.594051 -6.224124
v -3.326461 5.079917 -6.224124
v -3.276074 5.263341 -6.236706
v -3.360384 5.428810 -6.236706
v -3.491701 5.560127 -6.236706
v -3.657171 5.644438 -6.236706
v -3.840595 5.673490 -6.236706
v -3.247022 5.079917 -6.236706
v -3.207919 5.285486 -6.273220
v -3.302408 5.470932 -6.273220
v -3.449580 5.618103 -6.273220
v -3.635026 5.712593 -6.273220
v -3.840595 5.745151 -6.273220
v -3.175360 5.079917 -6.273220
v -3.153831 5.303060 -6.330091
v -3.256398 5.504361 -6.330091
v -3.416151 5.664113 -6.330091
v -3.617452 5.766681 -6.330091
v -3.840595 5.802023 -6.330091
v -3.118489 5.079917 -6.330091
v -3.119104 5.314343 -6.401753
v -3.226858 5.525823 -6.401753
v -3.394689 5.693654 -6.401753
v -3.606168 5.801407 -6.401753
v -3.840595 5.838537 -6.401753
v -3.081975 5.079917 -6.401753
v -3.107138 5.318232 -6.481191
v -3.216679 5.533218 -6.481191
v -3.387294 5.703833 -6.481191
v -3.602280 5.813374 -6.481191
v -3.840595 5.851119 -6.481191
v -3.069394 5.079917 -6.481191
v -3.119104 5.314343 -6.560629
v -3.226858 5.525823 -6.560629
v -3.394689 5.693654 -6.560629
v -3.606168 5.801407 -6.560629
v -3.840595 5.838537 -6.560629
v -3.081975 5.079917 -6.560629
v -3.153831 5.303060 -6.632292
v -3.256398 5.504361 -6.632292
v -3.416151 5.664113 -6.632292
v -3.617452 5.766681 -6.632292
v -3.840595 5.802023 -6.632292
v -3.118489 5.079917 -6.632292
v -3.207919 5.285486 -6.689163
v -3.302408 5.470932 -6.689163
v -3.449579 5.618103 -6.689163
v -3.635026 5.712593 -6.689163
v -3.840595 5.745152 -6.689163
v -3.175360 5.079917 -6.689163
v -3.276074 5.263341 -6.725677
v -3.360384 5.428810 -6.725677
v -3.491701 5.560127 -6.725677
v -3.657171 5.644438 -6.725677
v -3.840595 5.673490 -6.725677
v -3.247022 5.079917 -6.725677
v -3.351624 5.238794 -6.738258
v -3.424651 5.382118 -6.738258
v -3.538394 5.495860 -6.738258
v -3.681718 5.568888 -6.738258
v -3.840595 5.594051 -6.738258
v -3.326461 5.079917 -6.738258
v -3.427174 5.214246 -6.725677
v -3.488918 5.335425 -6.725677
v -3.585087 5.431594 -6.725677
v -3.706266 5.493338 -6.725677
v -3.840595 5.514613 -6.725677
v -3.403347 5.078386 -6.724492
v -3.495329 5.192101 -6.689163
v -3.546894 5.293303 -6.689163
v -3.627209 5.373618 -6.689163
v -3.728411 5.425183 -6.689163
v -3.840595 5.442951 -6.689163
v -3.475728 5.078907 -6.689428
v -3.549417 5.174527 -6.632292
v -3.592904 5.259875 -6.632292
v -3.660637 5.327608 -6.632292
v -3.745985 5.371095 -6.632292
v -3.840595 5.386080 -6.632292
v -3.533730 5.079636 -6.633714
v -3.584143 5.163243 -6.560629
v -3.622444 5.238413 -6.560629
v -3.682099 5.298068 -6.560629
v -3.757268 5.336368 -6.560629
v -3.840595 5.349566 -6.560629
v -3.571675 5.080503 -6.562805
v -7.496430 5.341181 -6.481192
v -7.497509 5.340106 -6.451580
v -7.500350 5.340380 -6.415140
v -7.503893 5.351035 -6.369237
v -7.506785 5.382519 -6.318128
v -7.507896 5.441299 -6.272871
v -7.506785 5.525327 -6.248007
v -7.503893 5.622670 -6.256077
v -7.500350 5.714254 -6.302348
v -7.497509 5.779619 -6.382054
v -7.496430 5.803315 -6.481191
v -7.497509 5.779619 -6.580329
v -7.500350 5.714255 -6.660035
v -7.503893 5.622671 -6.706306
v -7.506785 5.525327 -6.714376
v -7.507896 5.441299 -6.689511
v -7.506785 5.382519 -6.644255
v -7.503893 5.351034 -6.593146
v -7.500350 5.340379 -6.547243
v -7.497509 5.340103 -6.510803
v -3.532577 1.696968 -6.488722
v -3.525452 1.696260 -6.501481
v -3.544598 1.691645 -6.478434
v -3.572782 1.684168 -6.441596
v -3.576964 1.678065 -6.381132
v -3.540167 1.675721 -6.313262
v -3.459563 1.678065 -6.261830
v -3.349473 1.684168 -6.249071
v -3.237240 1.691645 -6.286535
v -3.153789 1.697642 -6.370153
v -3.123001 1.699920 -6.481191
v -3.153790 1.697642 -6.592229
v -3.237240 1.691645 -6.675848
v -3.349473 1.684168 -6.713312
v -3.459563 1.678065 -6.700553
v -3.524142 1.676119 -6.646962
v -3.561549 1.677647 -6.570637
v -3.579565 1.684036 -6.507505
v -3.560949 1.690250 -6.474087
v -3.544483 1.693877 -6.463237
vt 0.000000 1.000000
vt 0.050000 1.000000
vt 0.100000 1.000000
vt 0.150000 1.000000
vt 0.200000 1.000000
vt 0.950000 1.000000
vt 1.000000 1.000000
vt 0.000000 0.950000
vt 0.050000 0.950000
vt 0.100000 0.950000
vt 0.150000 0.950000
vt 0.200000 0.950000
vt 0.950000 0.950000
vt 1.000000 0.950000
vt 0.000000 0.900000
vt 0.050000 0.900000
vt 0.100000 0.900000
vt 0.150000 0.900000
vt 0.200000 0.900000
vt 0.950000 0.900000
vt 1.000000 0.900000
vt 0.000000 0.850000
vt 0.050000 0.850000
vt 0.100000 0.850000
vt 0.150000 0.850000
vt 0.200000 0.850000
vt 0.950000 0.850000
vt 1.000000 0.850000
vt 0.000000 0.800000
vt 0.050000 0.800000
vt 0.100000 0.800000
vt 0.150000 0.800000
vt 0.200000 0.800000
vt 0.950000 0.800000
vt 1.000000 0.800000
vt 0.000000 0.750000
vt 0.050000 0.750000
vt 0.100000 0.750000
vt 0.150000 0.750000
vt 0.200000 0.750000
vt 0.950000 0.750000
vt 1.000000 0.750000
vt 0.000000 0.700000
vt 0.050000 0.700000
vt 0.100000 0.700000
vt 0.150000 0.700000
vt 0.200000 0.700000
vt 0.950000 0.700000
vt 1.000000 0.700000
vt 0.000000 0.650000
vt 0.050000 0.650000
vt 0.100000 0.650000
vt 0.150000 0.650000
vt 0.200000 0.650000
vt 0.950000 0.650000
vt 1.000000 0.650000
vt 0.000000 0.600000
vt 0.050000 0.600000
vt 0.100000 0.600000
vt 0.150000 0.600000
vt 0.200000 0.600000
vt 0.950000 0.600000
vt 1.000000 0.600000
vt 0.000000 0.550000
vt 0.050000 0.550000
vt 0.100000 0.550000
vt 0.150000 0.550000
vt 0.200000 0.550000
vt 0.950000 0.550000
vt 1.000000 0.550000
vt 0.000000 0.500000
vt 0.050000 0.500000
vt 0.100000 0.500000
vt 0.150000 0.500000
vt 0.200000 0.500000
vt 0.950000 0.500000
vt 1.000000 0.500000
vt 0.000000 0.450000
vt 0.050000 0.450000
vt 0.100000 0.450000
vt 0.150000 0.450000
vt 0.200000 0.450000
vt 0.950000 0.450000
vt 1.000000 0.450000
vt 0.000000 0.400000
vt 0.050000 0.400000
vt 0.100000 0.400000
vt 0.150000 0.400000
vt 0.200000 0.400000
vt 0.950000 0.400000
vt 1.000000 0.400000
vt 0.000000 0.350000
vt 0.050000 0.350000
vt 0.100000 0.350000
vt 0.150000 0.350000
vt 0.200000 0.350000
vt 0.950000 0.350000
vt 1.000000 0.350000
vt 0.000000 0.300000
vt 0.050000 0.300000
vt 0.100000 0.300000
vt 0.150000 0.300000
vt 0.200000 0.300000
vt 0.950000 0.300000
vt 1.000000 0.300000
vt 0.000000 0.250000
vt 0.050000 0.250000
vt 0.100000 0.250000
vt 0.150000 0.250000
vt 0.200000 0.250000
vt 0.950000 0.250000
vt 1.000000 0.250000
vt 0.000000 0.200000
vt 0.050000 0.200000
vt 0.100000 0.200000
vt 0.150000 0.200000
vt 0.200000 0.200000
vt 0.950000 0.200000
vt 1.000000 0.200000
vt 0.000000 0.150000
vt 0.050000 0.150000
vt 0.100000 0.150000
vt 0.150000 0.150000
vt 0.200000 0.150000
vt 0.950000 0.150000
vt 1.000000 0.150000
vt 0.000000 0.100000
vt 0.050000 0.100000
vt 0.100000 0.100000
vt 0.150000 0.100000
vt 0.200000 0.100000
vt 0.950000 0.100000
vt 1.000000 0.100000
vt 0.000000 0.050000
vt 0.050000 0.050000
vt 0.100000 0.050000
vt 0.150000 0.050000
vt 0.200000 0.050000
vt 0.950000 0.050000
vt 1.000000 0.050000
vt 0.000000 -0.000000
vt 0.050000 -0.000000
vt 0.100000 -0.000000
vt 0.150000 -0.000000
vt 0.200000 -0.000000
vt 0.950000 -0.000000
vt 1.000000 -0.000000
vt -0.104376 1.000000
vt -0.104376 0.950000
vt -0.408574 0.950000
vt -0.408574 0.900000
vt -0.408571 0.900000
vt -0.408571 0.850000
vt -0.408571 0.850000
vt -0.408571 0.800000
vt -0.408573 0.800000
vt -0.408573 0.750000
vt -0.408565 0.750000
vt -0.408565 0.700000
vt -0.408573 0.700000
vt -0.408573 0.650000
vt -0.408570 0.650000
vt -0.408570 0.600000
vt -0.408574 0.600000
vt -0.408574 0.550000
vt -0.408573 0.550000
vt -0.408573 0.500000
vt -0.408573 0.500000
vt -0.408573 0.450000
vt -0.408574 0.450000
vt -0.408574 0.400000
vt -0.408573 0.400000
vt -0.408573 0.350000
vt -0.408571 0.350000
vt -0.408571 0.300000
vt -0.408566 0.300000
vt -0.408566 0.250000
vt -0.408569 0.250000
vt -0.408569 0.200000
vt -0.408569 0.200000
vt -0.408569 0.150000
vt -0.408572 0.150000
vt -0.408572 0.100000
vt -0.408572 0.100000
vt -0.408572 0.050000
vt -0.408573 0.050000
vt -0.408573 -0.000000
vt 0.329334 1.000000
vt 0.329334 0.950000
vt -0.334728 0.950000
vt -0.334728 0.900000
vt -0.334450 0.900000
vt -0.334450 0.850000
vt -0.334447 0.850000
vt -0.334447 0.800000
vt -0.334444 0.800000
vt -0.334444 0.750000
vt -0.334441 0.750000
vt -0.334441 0.700000
vt -0.334445 0.700000
vt -0.334445 0.650000
vt -0.334447 0.650000
vt -0.334447 0.600000
vt -0.334450 0.600000
vt -0.334450 0.550000
vt -0.334451 0.550000
vt -0.334451 0.500000
vt -0.334451 0.500000
vt -0.334451 0.450000
vt -0.334451 0.450000
vt -0.334451 0.400000
vt -0.334450 0.400000
vt -0.334450 0.350000
vt -0.334447 0.350000
vt -0.334447 0.300000
vt -0.334443 0.300000
vt -0.334443 0.250000
vt -0.372189 0.250000
vt -0.372189 0.200000
vt -0.334457 0.200000
vt -0.334457 0.150000
vt -0.334517 0.150000
vt -0.334517 0.100000
vt -0.334544 0.100000
vt -0.334544 0.050000
vt -0.334553 0.050000
vt -0.334553 -0.000000
vn -0.809017 -0.587785 0.000001
vn -0.953331 -0.301915 0.002801
vn -0.901053 -0.290139 0.322370
vn -0.766421 -0.556838 0.320202
vn -0.587785 -0.809017 0.000000
vn -0.556837 -0.766422 0.320202
vn -0.309016 -0.951057 0.000001
vn -0.292747 -0.900983 0.320201
vn -0.005049 -0.999987 0.000015
vn -0.004305 -0.975155 0.221481
vn -0.988520 -0.023735 0.149215
vn -0.971327 -0.020619 0.236852
vn -0.757602 -0.246159 0.604520
vn -0.644454 -0.468224 0.604520
vn -0.468223 -0.644455 0.604520
vn -0.246159 -0.757601 0.604521
vn -0.002752 -0.892430 0.451177
vn -0.966606 -0.010558 0.256051
vn -0.538658 -0.175020 0.824145
vn -0.458210 -0.332910 0.824145
vn -0.332909 -0.458210 0.824145
vn -0.175021 -0.538658 0.824145
vn -0.001716 -0.736521 0.676413
vn -0.564114 -0.089346 0.820849
vn -0.268212 -0.087147 0.959410
vn -0.228155 -0.165765 0.959410
vn -0.165764 -0.228155 0.959410
vn -0.087148 -0.268213 0.959410
vn -0.001926 -0.504049 0.863673
vn -0.281735 -0.044622 0.958454
vn 0.026302 0.008546 0.999618
vn 0.022374 0.016256 0.999618
vn 0.016256 0.022374 0.999618
vn 0.008546 0.026302 0.999618
vn -0.003081 -0.211860 0.977295
vn -0.371644 0.001075 0.928375
vn 0.316323 0.102779 0.943067
vn 0.269080 0.195498 0.943068
vn 0.195498 0.269080 0.943068
vn 0.102779 0.316322 0.943068
vn -0.004361 0.111325 0.993775
vn -0.019924 -0.002141 0.999799
vn 0.574571 0.186689 0.796879
vn 0.488758 0.355104 0.796879
vn 0.355104 0.488758 0.796879
vn 0.186689 0.574570 0.796879
vn -0.005123 0.434032 0.900883
vn 0.338910 -0.005063 0.940805
vn 0.777400 0.252592 0.576061
vn 0.661296 0.480459 0.576061
vn 0.480459 0.661296 0.576061
vn 0.252592 0.777400 0.576061
vn -0.005222 0.720358 0.693583
vn 0.665998 -0.006896 0.745922
vn 0.906679 0.294596 0.301905
vn 0.771267 0.560358 0.301905
vn 0.560358 0.771266 0.301906
vn 0.294597 0.906678 0.301906
vn -0.004958 0.924706 0.380650
vn 0.908163 -0.007717 0.418545
vn 0.951057 0.309016 -0.000000
vn 0.809017 0.587785 -0.000000
vn 0.587785 0.809017 -0.000000
vn 0.309016 0.951057 -0.000000
vn -0.004796 0.999988 -0.000000
vn 0.999969 -0.007922 -0.000000
vn 0.906679 0.294596 -0.301905
vn 0.771267 0.560358 -0.301905
vn 0.560358 0.771266 -0.301906
vn 0.294597 0.906678 -0.301906
vn -0.004958 0.924706 -0.380649
vn 0.908163 -0.007717 -0.418545
vn 0.777401 0.252592 -0.576060
vn 0.661296 0.480460 -0.576061
vn 0.480459 0.661296 -0.576061
vn 0.252593 0.777401 -0.576060
vn -0.005222 0.720361 -0.693580
vn 0.665999 -0.006896 -0.745921
vn 0.574571 0.186689 -0.796879
vn 0.488759 0.355104 -0.796879
vn 0.355104 0.488758 -0.796879
vn 0.186689 0.574570 -0.796879
vn -0.005123 0.434032 -0.900883
vn 0.338911 -0.005063 -0.940805
vn 0.316323 0.102779 -0.943068
vn 0.269080 0.195498 -0.943067
vn 0.195498 0.269080 -0.943068
vn 0.102780 0.316322 -0.943068
vn -0.004361 0.111323 -0.993775
vn -0.026901 -0.001500 -0.999637
vn 0.024765 0.007217 -0.999667
vn 0.022374 0.016256 -0.999617
vn 0.016256 0.022374 -0.999618
vn 0.008546 0.026303 -0.999618
vn -0.003081 -0.211858 -0.977296
vn 0.023465 0.001509 -0.999724
vn -0.269597 -0.091093 -0.958655
vn -0.228155 -0.165764 -0.959410
vn -0.165764 -0.228155 -0.959410
vn -0.087147 -0.268212 -0.959410
vn -0.001926 -0.504047 -0.863674
vn -0.660572 -0.002391 -0.750759
vn -0.534415 -0.177433 -0.826388
vn -0.458210 -0.332909 -0.824145
vn -0.332909 -0.458211 -0.824145
vn -0.175020 -0.538658 -0.824145
vn -0.001715 -0.736521 -0.676412
vn -0.809722 -0.008298 -0.586755
vn -0.755385 -0.244202 -0.608078
vn -0.644455 -0.468223 -0.604520
vn -0.468223 -0.644455 -0.604520
vn -0.246159 -0.757603 -0.604520
vn -0.002752 -0.892426 -0.451185
vn -0.936305 -0.011503 -0.350998
vn -0.901625 -0.286043 -0.324425
vn -0.766422 -0.556838 -0.320202
vn -0.556837 -0.766422 -0.320202
vn -0.292746 -0.900983 -0.320201
vn -0.004305 -0.975156 -0.221478
vn -0.983152 -0.017659 -0.181933
vn 0.000632 -0.975467 0.220145
vn 0.000001 -1.000000 0.000015
vn 0.001709 -0.894396 0.447272
vn 0.001722 -0.742814 0.669496
vn -0.000085 -0.516879 0.856059
vn -0.003312 -0.230612 0.973040
vn -0.006956 0.090187 0.995901
vn -0.010123 0.415349 0.909606
vn -0.012371 0.708463 0.705639
vn -0.013642 0.920861 0.389652
vn -0.014045 0.999901 -0.000000
vn -0.013642 0.920862 -0.389650
vn -0.012371 0.708466 -0.705636
vn -0.010123 0.415348 -0.909606
vn -0.006955 0.090186 -0.995901
vn -0.003312 -0.230610 -0.973041
vn -0.000085 -0.516876 -0.856060
vn 0.001722 -0.742815 -0.669495
vn 0.001709 -0.894392 -0.447280
vn 0.000632 -0.975468 -0.220142
vn -0.987540 -0.016181 0.156533
vn -0.973238 -0.014487 0.229341
vn -0.970323 -0.004699 0.241767
vn -0.890442 0.003859 0.455080
vn -0.888361 0.003927 0.459129
vn -0.689673 0.004859 0.724105
vn -0.693321 0.004886 0.720612
vn -0.402865 0.001119 0.915259
vn -0.056108 -0.004577 0.998414
vn 0.306410 -0.010006 0.951847
vn 0.644645 -0.014120 0.764352
vn 0.901000 -0.016633 0.433500
vn 0.999847 -0.017481 -0.000000
vn 0.901000 -0.016633 -0.433500
vn 0.644646 -0.014120 -0.764351
vn 0.306411 -0.010006 -0.951847
vn -0.065826 -0.003960 -0.997823
vn -0.445017 0.001992 -0.895520
vn -0.459275 0.002158 -0.888292
vn -0.677197 -0.000309 -0.735802
vn -0.817084 -0.004180 -0.576503
vn -0.939624 -0.005625 -0.342162
vn -0.983386 -0.010703 -0.181210
vn -0.999932 0.011662 0.000001
vn -0.999932 0.011662 0.000001
vn -0.999932 0.011662 0.000001
vn -0.999932 0.011662 0.000001
vn -0.999932 0.011662 0.000001
vn -0.999932 0.011662 0.000001
vn -0.999932 0.011662 0.000001
vn -0.999932 0.011662 0.000001
vn -0.999932 0.011662 0.000001
vn -0.999932 0.011662 0.000001
vn -0.999932 0.011662 0.000001
vn -0.999932 0.011662 0.000001
vn -0.999932 0.011662 0.000001
vn -0.999932 0.011662 0.000001
vn -0.999932 0.011662 0.000001
vn -0.999932 0.011662 0.000001
vn -0.999932 0.011662 0.000001
vn -0.999932 0.011662 0.000001
vn -0.999932 0.011662 0.000001
vn -0.999932 0.011662 0.000001
vn 0.045217 -0.998977 0.000385
vn 0.045217 -0.998977 0.000385
vn 0.045217 -0.998977 0.000385
vn 0.045217 -0.998977 0.000385
vn 0.045217 -0.998977 0.000385
vn 0.045217 -0.998977 0.000385
vn 0.045217 -0.998977 0.000385
vn 0.045217 -0.998977 0.000385
vn 0.045217 -0.998977 0.000385
vn 0.045217 -0.998977 0.000385
vn 0.045217 -0.998977 0.000385
vn 0.045217 -0.998977 0.000385
vn 0.045217 -0.998977 0.000385
vn 0.045217 -0.998977 0.000385
vn 0.045217 -0.998977 0.000385
vn 0.045217 -0.998977 0.000385
vn 0.045217 -0.998977 0.000385
vn 0.045217 -0.998977 0.000385
vn 0.045217 -0.998977 0.000385
vn 0.045217 -0.998977 0.000385
s 1
g pTorus1
usemtl initialShadingGroup
f 2/2/1 1/1/2 7/8/3 8/9/4
f 3/3/5 2/2/1 8/9/4 9/10/6
f 4/4/7 3/3/5 9/10/6 10/11/8
f 5/5/9 4/4/7 10/11/8 11/12/10
f 1/7/2 6/6/11 12/13/12 7/14/3
f 8/9/4 7/8/3 13/15/13 14/16/14
f 9/10/6 8/9/4 14/16/14 15/17/15
f 10/11/8 9/10/6 15/17/15 16/18/16
f 11/12/10 10/11/8 16/18/16 17/19/17
f 7/14/3 12/13/12 18/20/18 13/21/13
f 14/16/14 13/15/13 19/22/19 20/23/20
f 15/17/15 14/16/14 20/23/20 21/24/21
f 16/18/16 15/17/15 21/24/21 22/25/22
f 17/19/17 16/18/16 22/25/22 23/26/23
f 13/21/13 18/20/18 24/27/24 19/28/19
f 20/23/20 19/22/19 25/29/25 26/30/26
f 21/24/21 20/23/20 26/30/26 27/31/27
f 22/25/22 21/24/21 27/31/27 28/32/28
f 23/26/23 22/25/22 28/32/28 29/33/29
f 19/28/19 24/27/24 30/34/30 25/35/25
f 26/30/26 25/29/25 31/36/31 32/37/32
f 27/31/27 26/30/26 32/37/32 33/38/33
f 28/32/28 27/31/27 33/38/33 34/39/34
f 29/33/29 28/32/28 34/39/34 35/40/35
f 25/35/25 30/34/30 36/41/36 31/42/31
f 32/37/32 31/36/31 37/43/37 38/44/38
f 33/38/33 32/37/32 38/44/38 39/45/39
f 34/39/34 33/38/33 39/45/39 40/46/40
f 35/40/35 34/39/34 40/46/40 41/47/41
f 31/42/31 36/41/36 42/48/42 37/49/37
f 38/44/38 37/43/37 43/50/43 44/51/44
f 39/45/39 38/44/38 44/51/44 45/52/45
f 40/46/40 39/45/39 45/52/45 46/53/46
f 41/47/41 40/46/40 46/53/46 47/54/47
f 37/49/37 42/48/42 48/55/48 43/56/43
f 44/51/44 43/50/43 49/57/49 50/58/50
f 45/52/45 44/51/44 50/58/50 51/59/51
f 46/53/46 45/52/45 51/59/51 52/60/52
f 47/54/47 46/53/46 52/60/52 53/61/53
f 43/56/43 48/55/48 54/62/54 49/63/49
f 50/58/50 49/57/49 55/64/55 56/65/56
f 51/59/51 50/58/50 56/65/56 57/66/57
f 52/60/52 51/59/51 57/66/57 58/67/58
f 53/61/53 52/60/52 58/67/58 59/68/59
f 49/63/49 54/62/54 60/69/60 55/70/55
f 56/65/56 55/64/55 61/71/61 62/72/62
f 57/66/57 56/65/56 62/72/62 63/73/63
f 58/67/58 57/66/57 63/73/63 64/74/64
f 59/68/59 58/67/58 64/74/64 65/75/65
f 55/70/55 60/69/60 66/76/66 61/77/61
f 62/72/62 61/71/61 67/78/67 68/79/68
f 63/73/63 62/72/62 68/79/68 69/80/69
f 64/74/64 63/73/63 69/80/69 70/81/70
f 65/75/65 64/74/64 70/81/70 71/82/71
f 61/77/61 66/76/66 72/83/72 67/84/67
f 68/79/68 67/78/67 73/85/73 74/86/74
f 69/80/69 68/79/68 74/86/74 75/87/75
f 70/81/70 69/80/69 75/87/75 76/88/76
f 71/82/71 70/81/70 76/88/76 77/89/77
f 67/84/67 72/83/72 78/90/78 73/91/73
f 74/86/74 73/85/73 79/92/79 80/93/80
f 75/87/75 74/86/74 80/93/80 81/94/81
f 76/88/76 75/87/75 81/94/81 82/95/82
f 77/89/77 76/88/76 82/95/82 83/96/83
f 73/91/73 78/90/78 84/97/84 79/98/79
f 80/93/80 79/92/79 85/99/85 86/100/86
f 81/94/81 80/93/80 86/100/86 87/101/87
f 82/95/82 81/94/81 87/101/87 88/102/88
f 83/96/83 82/95/82 88/102/88 89/103/89
f 79/98/79 84/97/84 90/104/90 85/105/85
f 86/100/86 85/99/85 91/106/91 92/107/92
f 87/101/87 86/100/86 92/107/92 93/108/93
f 88/102/88 87/101/87 93/108/93 94/109/94
f 89/103/89 88/102/88 94/109/94 95/110/95
f 85/105/85 90/104/90 96/111/96 91/112/91
f 92/107/92 91/106/91 97/113/97 98/114/98
f 93/108/93 92/107/92 98/114/98 99/115/99
f 94/109/94 93/108/93 99/115/99 100/116/100
f 95/110/95 94/109/94 100/116/100 101/117/101
f 91/112/91 96/111/96 102/118/102 97/119/97
f 98/114/98 97/113/97 103/120/103 104/121/104
f 99/115/99 98/114/98 104/121/104 105/122/105
f 100/116/100 99/115/99 105/122/105 106/123/106
f 101/117/101 100/116/100 106/123/106 107/124/107
f 97/119/97 102/118/102 108/125/108 103/126/103
f 104/121/104 103/120/103 109/127/109 110/128/110
f 105/122/105 104/121/104 110/128/110 111/129/111
f 106/123/106 105/122/105 111/129/111 112/130/112
f 107/124/107 106/123/106 112/130/112 113/131/113
f 103/126/103 108/125/108 114/132/114 109/133/109
f 110/128/110 109/127/109 115/134/115 116/135/116
f 111/129/111 110/128/110 116/135/116 117/136/117
f 112/130/112 111/129/111 117/136/117 118/137/118
f 113/131/113 112/130/112 118/137/118 119/138/119
f 109/133/109 114/132/114 120/139/120 115/140/115
f 116/135/116 115/134/115 1/141/2 2/142/1
f 117/136/117 116/135/116 2/142/1 3/143/5
f 118/137/118 117/136/117 3/143/5 4/144/7
f 119/138/119 118/137/118 4/144/7 5/145/9
f 115/140/115 120/139/120 6/146/11 1/147/2
f 5/5/9 11/12/10 122/149/121 121/148/122
f 11/12/10 17/19/17 123/151/123 122/150/121
f 17/19/17 23/26/23 124/153/124 123/152/123
f 23/26/23 29/33/29 125/155/125 124/154/124
f 29/33/29 35/40/35 126/157/126 125/156/125
f 35/40/35 41/47/41 127/159/127 126/158/126
f 41/47/41 47/54/47 128/161/128 127/160/127
f 47/54/47 53/61/53 129/163/129 128/162/128
f 53/61/53 59/68/59 130/165/130 129/164/129
f 59/68/59 65/75/65 131/167/131 130/166/130
f 65/75/65 71/82/71 132/169/132 131/168/131
f 71/82/71 77/89/77 133/171/133 132/170/132
f 77/89/77 83/96/83 134/173/134 133/172/133
f 83/96/83 89/103/89 135/175/135 134/174/134
f 89/103/89 95/110/95 136/177/136 135/176/135
f 95/110/95 101/117/101 137/179/137 136/178/136
f 101/117/101 107/124/107 138/181/138 137/180/137
f 107/124/107 113/131/113 139/183/139 138/182/138
f 113/131/113 119/138/119 140/185/140 139/184/139
f 119/138/119 5/145/9 121/187/122 140/186/140
f 12/6/12 6/13/11 141/189/141 142/188/142
f 18/13/18 12/20/12 142/191/142 143/190/143
f 24/20/144 18/27/18 143/193/143 144/192/145
f 30/27/146 24/34/144 144/195/145 145/194/147
f 36/34/36 30/41/146 145/197/147 146/196/148
f 42/41/42 36/48/36 146/199/148 147/198/149
f 48/48/48 42/55/42 147/201/149 148/200/150
f 54/55/54 48/62/48 148/203/150 149/202/151
f 60/62/60 54/69/54 149/205/151 150/204/152
f 66/69/66 60/76/60 150/207/152 151/206/153
f 72/76/72 66/83/66 151/209/153 152/208/154
f 78/83/78 72/90/72 152/211/154 153/210/155
f 84/90/84 78/97/78 153/213/155 154/212/156
f 90/97/90 84/104/84 154/215/156 155/214/157
f 96/104/158 90/111/90 155/217/157 156/216/159
f 102/111/102 96/118/158 156/219/159 157/218/160
f 108/118/108 102/125/102 157/221/160 158/220/161
f 114/125/114 108/132/108 158/223/161 159/222/162
f 120/132/120 114/139/114 159/225/162 160/224/163
f 6/139/11 120/146/120 160/227/163 141/226/141
s off
f 122/150/164 123/152/165 124/154/166 125/156/167 126/158/168 127/160/169 128/162/170 129/164/171 130/166/172 131/168/173 132/170/174 133/172/175 134/174/176 135/176/177 136/178/178 137/180/179 138/182/180 139/184/181 140/186/182 121/148/183
f 142/188/184 141/226/185 160/224/186 159/222/187 158/220/188 157/218/189 156/216/190 155/214/191 154/212/192 153/210/193 152/208/194 151/206/195 150/204/196 149/202/197 148/200/198 147/198/199 146/196/200 145/194/201 144/192/202 143/190/203
